<svg width="51" height="32" viewBox="0 0 51 32" fill="none" xmlns="http://www.w3.org/2000/svg">
<path d="M31.8725 28.3666H18.4248V4.2002H31.8725V28.3666Z" fill="#FF5F00"/>
<path d="M19.2787 16.2844C19.2767 13.9572 19.8041 11.66 20.8212 9.56674C21.8382 7.47348 23.3181 5.63903 25.1489 4.20227C22.8817 2.42056 20.1591 1.31259 17.2921 1.005C14.425 0.697404 11.5293 1.20259 8.93583 2.46281C6.34233 3.72303 4.15568 5.68746 2.62578 8.13159C1.09587 10.5757 0.284428 13.401 0.28418 16.2844C0.284733 19.1675 1.09627 21.9923 2.62607 24.4361C4.15588 26.8799 6.34224 28.8441 8.93538 30.1042C11.5285 31.3644 14.4238 31.8697 17.2905 31.5624C20.1572 31.2551 22.8796 30.1477 25.1468 28.3666C23.3166 26.9294 21.8373 25.0948 20.8206 23.0016C19.804 20.9084 19.2768 18.6114 19.2787 16.2844Z" fill="#EB001B"/>
<path d="M50.0131 16.2844C50.0129 19.1679 49.2014 21.9931 47.6715 24.4373C46.1416 26.8814 43.955 28.8458 41.3615 30.1061C38.768 31.3663 35.8723 31.8715 33.0052 31.5639C30.1382 31.2563 27.4156 30.1483 25.1484 28.3666C28.7227 25.5527 31.0186 21.1869 31.0186 16.2844C31.0186 11.3819 28.7227 7.01612 25.1484 4.20227C27.4156 2.42056 30.1382 1.31259 33.0052 1.005C35.8723 0.697404 38.768 1.20259 41.3615 2.46281C43.955 3.72303 46.1416 5.68746 47.6715 8.13159C49.2014 10.5757 50.0129 13.401 50.0131 16.2844Z" fill="#F79E1B"/>
</svg>
