<svg width="23" height="26" viewBox="0 0 23 26" fill="none" xmlns="http://www.w3.org/2000/svg">
<path d="M7.31543 19.9407C7.31543 20.3801 6.9248 20.7219 6.53418 20.7219C6.09473 20.7219 5.75293 20.3801 5.75293 19.9407V9.00317C5.75293 8.61255 6.09473 8.22192 6.53418 8.22192C6.9248 8.22192 7.31543 8.61255 7.31543 9.00317V19.9407ZM12.0029 19.9407C12.0029 20.3801 11.6123 20.7219 11.2217 20.7219C10.7822 20.7219 10.4404 20.3801 10.4404 19.9407V9.00317C10.4404 8.61255 10.7822 8.22192 11.2217 8.22192C11.6123 8.22192 12.0029 8.61255 12.0029 9.00317V19.9407ZM16.6904 19.9407C16.6904 20.3801 16.2998 20.7219 15.9092 20.7219C15.4697 20.7219 15.1279 20.3801 15.1279 19.9407V9.00317C15.1279 8.61255 15.4697 8.22192 15.9092 8.22192C16.2998 8.22192 16.6904 8.61255 16.6904 9.00317V19.9407ZM15.4209 1.53247L16.6904 3.53442H21.3779C21.7686 3.53442 22.1592 3.92505 22.1592 4.31567C22.1592 4.75513 21.7686 5.09692 21.3779 5.09692H20.5967V21.5032C20.5967 23.7004 18.8389 25.4094 16.6904 25.4094H5.75293C3.55566 25.4094 1.84668 23.7004 1.84668 21.5032V5.09692H1.06543C0.625977 5.09692 0.28418 4.75513 0.28418 4.31567C0.28418 3.92505 0.625977 3.53442 1.06543 3.53442H5.7041L6.97363 1.53247C7.36426 0.848877 8.14551 0.409424 8.92676 0.409424H13.4678C14.249 0.409424 15.0303 0.848877 15.4209 1.53247ZM7.51074 3.53442H14.8838L14.1025 2.36255C13.9561 2.11841 13.7119 1.97192 13.4678 1.97192H8.92676C8.68262 1.97192 8.43848 2.11841 8.29199 2.36255L7.51074 3.53442ZM3.40918 21.5032C3.40918 22.8215 4.43457 23.8469 5.75293 23.8469H16.6904C17.96 23.8469 19.0342 22.8215 19.0342 21.5032V5.09692H3.40918V21.5032Z" fill="#EB001B"/>
</svg>
