<svg width="69" height="24" viewBox="0 0 69 24" fill="none" xmlns="http://www.w3.org/2000/svg">
<path d="M24.6533 23.6665H30.1571L33.6945 1.6557H27.7983L24.6533 23.6665Z" fill="#1565C0"/>
<path d="M19.9379 1.26186L14.8279 16.984L13.8632 12.5555C11.112 5.87311 6.39453 3.12195 6.39453 3.12195L11.2905 23.2726H17.1867L25.4416 1.26044H19.9379V1.26186ZM63.9608 1.26186H58.0646L49.0234 23.274H54.5258L55.7044 20.129H62.7793L63.5655 23.274H68.2844L63.9608 1.26186ZM56.8859 16.1978L60.0309 7.94428L61.6034 16.1978H56.8859ZM41.1624 7.55045C41.1624 6.37178 41.9486 5.1917 44.6998 5.1917C46.6647 5.1917 48.631 6.76419 48.631 6.76419L49.8097 2.04811C49.8097 2.04811 47.0585 0.869446 44.6998 0.869446C38.8036 0.869446 36.0524 4.01444 36.0524 7.55186C36.0524 14.6267 43.9135 13.448 43.9135 16.9854C43.9135 17.7717 43.5211 18.9504 40.3761 18.9504C37.2311 18.9504 34.8738 17.7717 34.8738 17.7717L34.0875 22.4878C34.0875 22.4878 36.0524 23.6664 39.9837 23.6664C43.5211 24.0589 49.0249 20.9153 49.0249 16.1978C49.0249 10.6954 41.1624 10.303 41.1624 7.55045Z" fill="#1565C0"/>
<path d="M14.0414 13.4466L12.0765 3.62062C12.0765 3.62062 11.2903 1.6557 8.93151 1.6557C6.57276 1.6557 0.28418 1.6557 0.28418 1.6557C0.28418 1.6557 11.6827 5.19312 14.0414 13.4466Z" fill="#FF9800"/>
</svg>
