<svg width="28" height="32" viewBox="0 0 28 32" fill="none" xmlns="http://www.w3.org/2000/svg">
<path d="M26.9341 25.0384C26.4494 26.1215 25.8756 27.1184 25.2108 28.035C24.3046 29.2845 23.5626 30.1494 22.9908 30.6297C22.1044 31.4181 21.1546 31.8219 20.1376 31.8448C19.4075 31.8448 18.527 31.6439 17.5021 31.2363C16.4738 30.8306 15.5289 30.6297 14.6648 30.6297C13.7586 30.6297 12.7867 30.8306 11.7472 31.2363C10.706 31.6439 9.86729 31.8563 9.22603 31.8773C8.25078 31.9175 7.27869 31.5023 6.30838 30.6297C5.68908 30.1073 4.91446 29.2118 3.98649 27.9431C2.99086 26.5884 2.17231 25.0174 1.53105 23.2263C0.844277 21.2917 0.5 19.4184 0.5 17.6048C0.5 15.5273 0.96418 13.7354 1.89392 12.2339C2.62462 11.0278 3.59671 10.0764 4.81335 9.37796C6.02999 8.67952 7.34458 8.32361 8.76027 8.30084C9.53489 8.30084 10.5507 8.53257 11.8131 8.98798C13.0718 9.44493 13.8801 9.67666 14.2345 9.67666C14.4994 9.67666 15.3973 9.40571 16.9194 8.86552C18.3589 8.36456 19.5737 8.15713 20.569 8.23884C23.2658 8.44933 25.2919 9.47746 26.6393 11.3298C24.2274 12.7431 23.0343 14.7226 23.058 17.2621C23.0798 19.2401 23.8218 20.8861 25.28 22.193C25.9409 22.7996 26.6789 23.2684 27.5 23.6014C27.3219 24.1008 27.134 24.5792 26.9341 25.0384ZM20.749 1.50018C20.749 3.05054 20.1633 4.4981 18.996 5.83794C17.5872 7.43076 15.8832 8.35116 14.0354 8.20593C14.0119 8.01993 13.9982 7.82418 13.9982 7.61848C13.9982 6.13014 14.6682 4.53732 15.8579 3.23498C16.4519 2.57558 17.2073 2.0273 18.1234 1.58992C19.0375 1.15908 19.9022 0.920807 20.7154 0.880005C20.7391 1.08726 20.749 1.29455 20.749 1.50018Z" fill="black"/>
</svg>
