<svg width="29" height="30" viewBox="0 0 29 30" fill="none" xmlns="http://www.w3.org/2000/svg">
<path d="M14.9998 12.7437V18.3591H22.8034C22.4608 20.165 21.4325 21.6942 19.8902 22.7223L24.5961 26.3737C27.3379 23.8429 28.9198 20.1256 28.9198 15.7097C28.9198 14.6815 28.8275 13.6928 28.6561 12.7438L14.9998 12.7437Z" fill="#4285F4"/>
<path d="M6.87366 18.1399L5.81231 18.9523L2.05542 21.8786C4.44133 26.6109 9.33143 29.88 14.9996 29.88C18.9145 29.88 22.1967 28.5882 24.5959 26.3737L19.89 22.7223C18.5981 23.5923 16.9504 24.1196 14.9996 24.1196C11.2296 24.1196 8.02649 21.5755 6.87959 18.1482L6.87366 18.1399Z" fill="#34A853"/>
<path d="M2.05537 8.88144C1.06679 10.8323 0.500031 13.0337 0.500031 15.38C0.500031 17.7263 1.06679 19.9277 2.05537 21.8786C2.05537 21.8917 6.88001 18.1349 6.88001 18.1349C6.59001 17.2649 6.4186 16.3422 6.4186 15.3798C6.4186 14.4174 6.59001 13.4948 6.88001 12.6248L2.05537 8.88144Z" fill="#FBBC05"/>
<path d="M14.9999 6.65365C17.1354 6.65365 19.0335 7.39181 20.5494 8.81547L24.7017 4.66324C22.1839 2.31691 18.9149 0.880005 14.9999 0.880005C9.33172 0.880005 4.44133 4.13591 2.05542 8.88139L6.87991 12.625C8.02666 9.19772 11.2299 6.65365 14.9999 6.65365Z" fill="#EA4335"/>
</svg>
